<svg width="182" height="75" viewBox="0 0 182 75" fill="none" xmlns="http://www.w3.org/2000/svg">
<path d="M9.41358 28.1853C7.64853 28.1853 6.06559 27.8941 4.66476 27.3117C3.26393 26.7016 2.15728 25.8697 1.3448 24.8159C0.532315 23.7344 0.0840498 22.5003 0 21.1137H3.95034C4.06241 22.2507 4.59472 23.1797 5.54729 23.9007C6.52787 24.6218 7.80262 24.9823 9.37155 24.9823C10.8284 24.9823 11.9771 24.6634 12.8176 24.0255C13.6581 23.3877 14.0783 22.5835 14.0783 21.6129C14.0783 20.6145 13.6301 19.8797 12.7335 19.4082C11.837 18.909 10.4502 18.4237 8.57308 17.9523C6.86407 17.5086 5.46324 17.0649 4.37059 16.6212C3.30596 16.1497 2.38141 15.4703 1.59695 14.5829C0.840498 13.6678 0.462274 12.4753 0.462274 11.0055C0.462274 9.84079 0.812481 8.77311 1.5129 7.80251C2.21331 6.8319 3.2079 6.06928 4.49667 5.51464C5.78543 4.93228 7.2563 4.64109 8.90928 4.64109C11.4588 4.64109 13.518 5.27892 15.0869 6.55458C16.6559 7.83024 17.4964 9.57733 17.6084 11.7959H13.7842C13.7001 10.6034 13.2098 9.64666 12.3133 8.92564C11.4448 8.20461 10.2681 7.8441 8.78321 7.8441C7.41039 7.8441 6.31774 8.13529 5.50526 8.71765C4.69278 9.30002 4.28654 10.0626 4.28654 11.0055C4.28654 11.7543 4.52468 12.3782 5.00096 12.8774C5.50526 13.3488 6.12163 13.7371 6.85006 14.0421C7.60651 14.3195 8.64312 14.6384 9.9599 14.9989C11.6129 15.4426 12.9577 15.8863 13.9943 16.33C15.0309 16.746 15.9134 17.3838 16.6419 18.2435C17.3983 19.1032 17.7905 20.2263 17.8186 21.6129C17.8186 22.8608 17.4684 23.9839 16.7679 24.9823C16.0675 25.9806 15.0729 26.771 13.7842 27.3533C12.5234 27.908 11.0666 28.1853 9.41358 28.1853Z" fill="#CBC0C0"/>
<path d="M78.8087 6.48921C80.3456 6.48921 81.7144 6.81011 82.9151 7.4519C84.1158 8.06992 85.0644 9.00883 85.7608 10.2686C86.4572 11.5285 86.8054 13.0616 86.8054 14.8681V26.3847H83.5635V15.3317C83.5635 13.3825 83.0712 11.8969 82.0866 10.8748C81.1261 9.8289 79.8173 9.30596 78.1603 9.30596C76.4553 9.30596 75.0985 9.85267 74.0899 10.9461C73.0813 12.0157 72.577 13.5727 72.577 15.6169V26.3847H69.3351V15.3317C69.3351 13.3825 68.8428 11.8969 67.8582 10.8748C66.8976 9.8289 65.5889 9.30596 63.9319 9.30596C62.2269 9.30596 60.8701 9.85267 59.8615 10.9461C58.8529 12.0157 58.3486 13.5727 58.3486 15.6169V26.3847H55.0706V6.84576H58.3486V9.66251C58.997 8.6404 59.8615 7.85599 60.9421 7.30928C62.0468 6.76257 63.2595 6.48921 64.5803 6.48921C66.2373 6.48921 67.7021 6.85765 68.9749 7.59452C70.2476 8.33139 71.1962 9.41292 71.8206 10.8391C72.3729 9.46046 73.2854 8.39081 74.5582 7.63017C75.8309 6.86953 77.2478 6.48921 78.8087 6.48921Z" fill="#CBC0C0"/>
<path d="M96.7212 10.4469C97.3695 9.32973 98.3301 8.4027 99.6029 7.66583C100.9 6.90519 102.401 6.52487 104.106 6.52487C105.859 6.52487 107.444 6.94084 108.86 7.77279C110.301 8.60474 111.43 9.78136 112.246 11.3026C113.063 12.8001 113.471 14.5472 113.471 16.5439C113.471 18.5168 113.063 20.2758 112.246 21.8209C111.43 23.3659 110.301 24.5663 108.86 25.422C107.444 26.2777 105.859 26.7056 104.106 26.7056C102.425 26.7056 100.936 26.3372 99.6389 25.6003C98.3661 24.8397 97.3936 23.9007 96.7212 22.7836V35.655H93.4432V6.84576H96.7212V10.4469ZM110.121 16.5439C110.121 15.0702 109.821 13.7866 109.221 12.6932C108.62 11.5998 107.804 10.7678 106.771 10.1973C105.763 9.62685 104.646 9.34161 103.421 9.34161C102.22 9.34161 101.104 9.63874 100.071 10.233C99.0625 10.8035 98.2461 11.6473 97.6217 12.7645C97.0213 13.8579 96.7212 15.1296 96.7212 16.5796C96.7212 18.0533 97.0213 19.3488 97.6217 20.466C98.2461 21.5594 99.0625 22.4032 100.071 22.9975C101.104 23.568 102.22 23.8532 103.421 23.8532C104.646 23.8532 105.763 23.568 106.771 22.9975C107.804 22.4032 108.62 21.5594 109.221 20.466C109.821 19.3488 110.121 18.0414 110.121 16.5439Z" fill="#CBC0C0"/>
<path d="M122.324 0V26.3847H119.047V0H122.324Z" fill="#CBC0C0"/>
<path d="M147.183 15.8665C147.183 16.4845 147.147 17.1382 147.074 17.8275H131.297C131.417 19.7529 132.078 21.2623 133.278 22.3557C134.503 23.4253 135.98 23.9602 137.709 23.9602C139.126 23.9602 140.302 23.6393 141.239 22.9975C142.2 22.3319 142.872 21.4524 143.256 20.359H146.786C146.258 22.2368 145.201 23.77 143.616 24.9585C142.031 26.1232 140.062 26.7056 137.709 26.7056C135.836 26.7056 134.155 26.2896 132.666 25.4577C131.201 24.6257 130.048 23.4491 129.208 21.9278C128.367 20.3828 127.947 18.6 127.947 16.5796C127.947 14.5591 128.355 12.7883 129.172 11.267C129.988 9.7457 131.129 8.58097 132.594 7.77279C134.083 6.94084 135.788 6.52487 137.709 6.52487C139.582 6.52487 141.239 6.92896 142.68 7.73714C144.121 8.54532 145.225 9.66251 145.994 11.0887C146.786 12.4911 147.183 14.0837 147.183 15.8665ZM143.797 15.189C143.797 13.953 143.52 12.8952 142.968 12.0157C142.416 11.1125 141.659 10.435 140.699 9.9834C139.762 9.508 138.718 9.2703 137.565 9.2703C135.908 9.2703 134.491 9.79324 133.314 10.8391C132.162 11.885 131.501 13.335 131.333 15.189H143.797Z" fill="#CBC0C0"/>
<path d="M159.758 26.7056C158.245 26.7056 156.889 26.456 155.688 25.9569C154.487 25.4339 153.539 24.7208 152.842 23.8176C152.146 22.8905 151.761 21.8328 151.689 20.6443H155.075C155.172 21.6188 155.628 22.4151 156.444 23.0331C157.285 23.6512 158.377 23.9602 159.722 23.9602C160.971 23.9602 161.956 23.6868 162.676 23.1401C163.396 22.5934 163.757 21.9041 163.757 21.0721C163.757 20.2164 163.372 19.5865 162.604 19.1824C161.835 18.7545 160.647 18.3386 159.038 17.9345C157.573 17.5542 156.372 17.1738 155.436 16.7935C154.523 16.3894 153.731 15.8071 153.058 15.0464C152.41 14.262 152.086 13.2399 152.086 11.9801C152.086 10.9817 152.386 10.0666 152.986 9.23465C153.587 8.4027 154.439 7.74902 155.544 7.27362C156.648 6.77445 157.909 6.52487 159.326 6.52487C161.511 6.52487 163.276 7.07158 164.621 8.165C165.966 9.25842 166.686 10.7559 166.782 12.6575H163.504C163.432 11.6354 163.012 10.8154 162.244 10.1973C161.499 9.57931 160.491 9.2703 159.218 9.2703C158.041 9.2703 157.105 9.51989 156.408 10.0191C155.712 10.5182 155.364 11.1719 155.364 11.9801C155.364 12.6219 155.568 13.1567 155.976 13.5846C156.408 13.9887 156.937 14.3214 157.561 14.5829C158.209 14.8206 159.098 15.094 160.227 15.403C161.643 15.7833 162.796 16.1636 163.685 16.5439C164.573 16.9005 165.33 17.4472 165.954 18.1841C166.602 18.9209 166.938 19.8836 166.962 21.0721C166.962 22.1418 166.662 23.1045 166.062 23.9602C165.462 24.8159 164.609 25.4933 163.504 25.9925C162.424 26.4679 161.175 26.7056 159.758 26.7056Z" fill="#CBC0C0"/>
<path d="M176.849 9.51989V21.0365C176.849 21.9873 177.053 22.6647 177.461 23.0688C177.87 23.4491 178.578 23.6393 179.587 23.6393H182V26.3847H179.046C177.221 26.3847 175.852 25.9687 174.94 25.1368C174.027 24.3048 173.571 22.9381 173.571 21.0365V9.51989H171.013V6.84576H173.571V1.92537H176.849V6.84576H182V9.51989H176.849Z" fill="#CBC0C0"/>
<path d="M23.692 3.3278C22.6223 3.3278 22.0866 4.60799 22.843 5.3567L32.1834 14.6021C32.6523 15.0662 33.4126 15.0662 33.8815 14.6021L36.0191 12.4862C36.488 12.0221 36.488 11.2696 36.0191 10.8054L28.8163 3.67591C28.5911 3.45302 28.2857 3.3278 27.9673 3.3278H23.692Z" fill="#E89D9D"/>
<path d="M50.2832 9.20327C50.3851 9.30408 50.3851 9.46752 50.2832 9.56833L29.8219 29.8215C29.5968 30.0444 29.2914 30.1696 28.9729 30.1696H24.6977C23.628 30.1696 23.0923 28.8894 23.8487 28.1407L42.9807 9.20327C44.9972 7.20724 48.2667 7.20724 50.2832 9.20327Z" fill="#E89D9D"/>
<path d="M20.2025 65.8039L16.3986 75H15.3151L16.56 71.9879L14.0125 65.8039H15.1768L17.1594 70.8697L19.1189 65.8039H20.2025Z" fill="#CBC0C0"/>
<path d="M24.4152 72.159C23.8235 72.159 23.2856 72.0259 22.8015 71.7597C22.325 71.4934 21.9485 71.1169 21.6719 70.6301C21.4029 70.1357 21.2684 69.5652 21.2684 68.9187C21.2684 68.2797 21.4067 67.7169 21.6834 67.2301C21.9677 66.7356 22.3519 66.3591 22.8361 66.1005C23.3202 65.8343 23.8619 65.7012 24.4613 65.7012C25.0607 65.7012 25.6025 65.8343 26.0866 66.1005C26.5708 66.3591 26.9511 66.7318 27.2278 67.2187C27.5121 67.7055 27.6543 68.2721 27.6543 68.9187C27.6543 69.5652 27.5083 70.1357 27.2163 70.6301C26.9319 71.1169 26.5439 71.4934 26.052 71.7597C25.5602 72.0259 25.0146 72.159 24.4152 72.159ZM24.4152 71.2462C24.7918 71.2462 25.1453 71.1588 25.4757 70.9838C25.8061 70.8089 26.0713 70.5464 26.2711 70.1966C26.4785 69.8467 26.5823 69.4207 26.5823 68.9187C26.5823 68.4167 26.4824 67.9907 26.2826 67.6408C26.0828 67.2909 25.8215 67.0323 25.4988 66.865C25.176 66.69 24.8264 66.6025 24.4498 66.6025C24.0656 66.6025 23.7121 66.69 23.3893 66.865C23.0743 67.0323 22.8207 67.2909 22.6286 67.6408C22.4365 67.9907 22.3404 68.4167 22.3404 68.9187C22.3404 69.4283 22.4326 69.8581 22.6171 70.208C22.8092 70.5579 23.0628 70.8203 23.3778 70.9952C23.6929 71.1626 24.0387 71.2462 24.4152 71.2462Z" fill="#CBC0C0"/>
<path d="M35.0389 65.8039V72.0563H33.99V71.1321C33.7902 71.4516 33.5097 71.7026 33.1485 71.8852C32.795 72.0601 32.4031 72.1476 31.9728 72.1476C31.481 72.1476 31.0391 72.0487 30.6472 71.851C30.2553 71.6456 29.9441 71.3413 29.7135 70.9382C29.4907 70.535 29.3792 70.0444 29.3792 69.4663V65.8039H30.4167V69.3294C30.4167 69.9455 30.5742 70.421 30.8893 70.7556C31.2043 71.0827 31.6347 71.2462 32.1803 71.2462C32.7412 71.2462 33.1831 71.0751 33.5059 70.7328C33.8286 70.3905 33.99 69.8923 33.99 69.2382V65.8039H35.0389Z" fill="#CBC0C0"/>
<path d="M38.2624 66.8193C38.4468 66.4618 38.7081 66.1842 39.0462 65.9864C39.392 65.7887 39.8108 65.6898 40.3026 65.6898V66.7623H40.026C38.8503 66.7623 38.2624 67.3936 38.2624 68.6563V72.0563H37.2134V65.8039H38.2624V66.8193Z" fill="#CBC0C0"/>
<path d="M45.0015 68.9073C45.0015 68.2683 45.1322 67.7093 45.3934 67.2301C45.6547 66.7432 46.012 66.3667 46.4654 66.1005C46.9265 65.8343 47.4414 65.7012 48.01 65.7012C48.5018 65.7012 48.9591 65.8153 49.3817 66.0435C49.8044 66.264 50.1271 66.5569 50.35 66.922V63.6132H51.4104V72.0563H50.35V70.8811C50.1425 71.2538 49.8351 71.5619 49.4278 71.8053C49.0205 72.0411 48.5441 72.159 47.9985 72.159C47.4375 72.159 46.9265 72.0221 46.4654 71.7483C46.012 71.4744 45.6547 71.0903 45.3934 70.5959C45.1322 70.1015 45.0015 69.5386 45.0015 68.9073ZM50.35 68.9187C50.35 68.4471 50.2539 68.0363 50.0618 67.6864C49.8697 67.3366 49.6084 67.0703 49.278 66.8878C48.9552 66.6976 48.5979 66.6025 48.206 66.6025C47.8141 66.6025 47.4567 66.6938 47.134 66.8764C46.8112 67.0589 46.5538 67.3251 46.3617 67.675C46.1696 68.0249 46.0735 68.4357 46.0735 68.9073C46.0735 69.3865 46.1696 69.8048 46.3617 70.1623C46.5538 70.5122 46.8112 70.7822 47.134 70.9724C47.4567 71.155 47.8141 71.2462 48.206 71.2462C48.5979 71.2462 48.9552 71.155 49.278 70.9724C49.6084 70.7822 49.8697 70.5122 50.0618 70.1623C50.2539 69.8048 50.35 69.3903 50.35 68.9187Z" fill="#CBC0C0"/>
<path d="M53.1946 68.9073C53.1946 68.2683 53.3252 67.7093 53.5865 67.2301C53.8478 66.7432 54.2051 66.3667 54.6585 66.1005C55.1196 65.8343 55.6306 65.7012 56.1916 65.7012C56.7448 65.7012 57.2251 65.8191 57.6324 66.0549C58.0397 66.2907 58.3432 66.5873 58.543 66.9448V65.8039H59.6035V72.0563H58.543V70.8925C58.3356 71.2577 58.0243 71.5619 57.6094 71.8053C57.2021 72.0411 56.7256 72.159 56.18 72.159C55.6191 72.159 55.1119 72.0221 54.6585 71.7483C54.2051 71.4744 53.8478 71.0903 53.5865 70.5959C53.3252 70.1015 53.1946 69.5386 53.1946 68.9073ZM58.543 68.9187C58.543 68.4471 58.447 68.0363 58.2549 67.6864C58.0627 67.3366 57.8015 67.0703 57.471 66.8878C57.1483 66.6976 56.791 66.6025 56.399 66.6025C56.0071 66.6025 55.6498 66.6938 55.327 66.8764C55.0043 67.0589 54.7469 67.3251 54.5547 67.675C54.3626 68.0249 54.2666 68.4357 54.2666 68.9073C54.2666 69.3865 54.3626 69.8048 54.5547 70.1623C54.7469 70.5122 55.0043 70.7822 55.327 70.9724C55.6498 71.155 56.0071 71.2462 56.399 71.2462C56.791 71.2462 57.1483 71.155 57.471 70.9724C57.8015 70.7822 58.0627 70.5122 58.2549 70.1623C58.447 69.8048 58.543 69.3903 58.543 68.9187Z" fill="#CBC0C0"/>
<path d="M63.059 66.6596V70.3449C63.059 70.6491 63.1243 70.8659 63.255 70.9952C63.3856 71.1169 63.6123 71.1778 63.9351 71.1778H64.7074V72.0563H63.7622C63.1781 72.0563 62.7401 71.9232 62.4481 71.657C62.1561 71.3908 62.0101 70.9534 62.0101 70.3449V66.6596H61.1917V65.8039H62.0101V64.2293H63.059V65.8039H64.7074V66.6596H63.059Z" fill="#CBC0C0"/>
<path d="M65.9898 68.9073C65.9898 68.2683 66.1205 67.7093 66.3817 67.2301C66.643 66.7432 67.0003 66.3667 67.4537 66.1005C67.9148 65.8343 68.4258 65.7012 68.9868 65.7012C69.5401 65.7012 70.0204 65.8191 70.4276 66.0549C70.8349 66.2907 71.1385 66.5873 71.3383 66.9448V65.8039H72.3987V72.0563H71.3383V70.8925C71.1308 71.2577 70.8195 71.5619 70.4046 71.8053C69.9973 72.0411 69.5209 72.159 68.9753 72.159C68.4143 72.159 67.9071 72.0221 67.4537 71.7483C67.0003 71.4744 66.643 71.0903 66.3817 70.5959C66.1205 70.1015 65.9898 69.5386 65.9898 68.9073ZM71.3383 68.9187C71.3383 68.4471 71.2422 68.0363 71.0501 67.6864C70.858 67.3366 70.5967 67.0703 70.2663 66.8878C69.9435 66.6976 69.5862 66.6025 69.1943 66.6025C68.8024 66.6025 68.445 66.6938 68.1223 66.8764C67.7995 67.0589 67.5421 67.3251 67.35 67.675C67.1579 68.0249 67.0618 68.4357 67.0618 68.9073C67.0618 69.3865 67.1579 69.8048 67.35 70.1623C67.5421 70.5122 67.7995 70.7822 68.1223 70.9724C68.445 71.155 68.8024 71.2462 69.1943 71.2462C69.5862 71.2462 69.9435 71.155 70.2663 70.9724C70.5967 70.7822 70.858 70.5122 71.0501 70.1623C71.2422 69.8048 71.3383 69.3903 71.3383 68.9187Z" fill="#CBC0C0"/>
<path d="M75.6583 70.6187L74.3673 73.6879H73.6642L74.5056 70.6187H75.6583Z" fill="#CBC0C0"/>
<path d="M86.1805 65.8039L82.3766 75H81.2931L82.538 71.9879L79.9906 65.8039H81.1548L83.1374 70.8697L85.097 65.8039H86.1805Z" fill="#CBC0C0"/>
<path d="M90.3933 72.159C89.8016 72.159 89.2636 72.0259 88.7795 71.7597C88.3031 71.4934 87.9265 71.1169 87.6499 70.6301C87.3809 70.1357 87.2465 69.5652 87.2465 68.9187C87.2465 68.2797 87.3848 67.7169 87.6614 67.2301C87.9458 66.7356 88.33 66.3591 88.8141 66.1005C89.2982 65.8343 89.84 65.7012 90.4394 65.7012C91.0388 65.7012 91.5806 65.8343 92.0647 66.1005C92.5488 66.3591 92.9292 66.7318 93.2058 67.2187C93.4902 67.7055 93.6323 68.2721 93.6323 68.9187C93.6323 69.5652 93.4863 70.1357 93.1943 70.6301C92.91 71.1169 92.5219 71.4934 92.0301 71.7597C91.5383 72.0259 90.9927 72.159 90.3933 72.159ZM90.3933 71.2462C90.7698 71.2462 91.1233 71.1588 91.4538 70.9838C91.7842 70.8089 92.0493 70.5464 92.2491 70.1966C92.4566 69.8467 92.5603 69.4207 92.5603 68.9187C92.5603 68.4167 92.4604 67.9907 92.2606 67.6408C92.0608 67.2909 91.7996 67.0323 91.4768 66.865C91.1541 66.69 90.8044 66.6025 90.4279 66.6025C90.0436 66.6025 89.6901 66.69 89.3674 66.865C89.0523 67.0323 88.7987 67.2909 88.6066 67.6408C88.4145 67.9907 88.3185 68.4167 88.3185 68.9187C88.3185 69.4283 88.4107 69.8581 88.5951 70.208C88.7872 70.5579 89.0408 70.8203 89.3559 70.9952C89.6709 71.1626 90.0167 71.2462 90.3933 71.2462Z" fill="#CBC0C0"/>
<path d="M101.017 65.8039V72.0563H99.968V71.1321C99.7682 71.4516 99.4877 71.7026 99.1266 71.8852C98.7731 72.0601 98.3812 72.1476 97.9508 72.1476C97.459 72.1476 97.0172 72.0487 96.6252 71.851C96.2333 71.6456 95.9221 71.3413 95.6916 70.9382C95.4687 70.535 95.3573 70.0444 95.3573 69.4663V65.8039H96.3947V69.3294C96.3947 69.9455 96.5522 70.421 96.8673 70.7556C97.1824 71.0827 97.6127 71.2462 98.1583 71.2462C98.7193 71.2462 99.1611 71.0751 99.4839 70.7328C99.8067 70.3905 99.968 69.8923 99.968 69.2382V65.8039H101.017Z" fill="#CBC0C0"/>
<path d="M104.24 66.8193C104.425 66.4618 104.686 66.1842 105.024 65.9864C105.37 65.7887 105.789 65.6898 106.281 65.6898V66.7623H106.004C104.828 66.7623 104.24 67.3936 104.24 68.6563V72.0563H103.191V65.8039H104.24V66.8193Z" fill="#CBC0C0"/>
<path d="M110.98 68.9187C110.98 68.2721 111.11 67.7093 111.371 67.2301C111.633 66.7432 111.994 66.3667 112.455 66.1005C112.924 65.8343 113.458 65.7012 114.057 65.7012C114.833 65.7012 115.471 65.8875 115.971 66.2602C116.478 66.6329 116.812 67.1502 116.974 67.812H115.844C115.736 67.4316 115.525 67.1312 115.21 66.9106C114.903 66.69 114.518 66.5797 114.057 66.5797C113.458 66.5797 112.974 66.7851 112.605 67.1958C112.236 67.599 112.052 68.1733 112.052 68.9187C112.052 69.6717 112.236 70.2536 112.605 70.6644C112.974 71.0751 113.458 71.2805 114.057 71.2805C114.518 71.2805 114.903 71.174 115.21 70.961C115.517 70.748 115.729 70.4438 115.844 70.0482H116.974C116.804 70.6872 116.466 71.2006 115.959 71.5885C115.452 71.9688 114.818 72.159 114.057 72.159C113.458 72.159 112.924 72.0259 112.455 71.7597C111.994 71.4934 111.633 71.1169 111.371 70.6301C111.11 70.1433 110.98 69.5728 110.98 68.9187Z" fill="#CBC0C0"/>
<path d="M121.912 65.6898C122.388 65.6898 122.819 65.7924 123.203 65.9978C123.587 66.1956 123.887 66.496 124.102 66.8992C124.325 67.3023 124.436 67.7929 124.436 68.371V72.0563H123.399V68.5193C123.399 67.8956 123.241 67.4202 122.926 67.0931C122.611 66.7585 122.181 66.5911 121.635 66.5911C121.082 66.5911 120.64 66.7623 120.31 67.1046C119.987 67.4468 119.826 67.9451 119.826 68.5992V72.0563H118.777V63.6132H119.826V66.6938C120.033 66.3743 120.317 66.1271 120.678 65.9522C121.047 65.7772 121.458 65.6898 121.912 65.6898Z" fill="#CBC0C0"/>
<path d="M129.308 72.159C128.716 72.159 128.178 72.0259 127.694 71.7597C127.218 71.4934 126.841 71.1169 126.565 70.6301C126.296 70.1357 126.161 69.5652 126.161 68.9187C126.161 68.2797 126.3 67.7169 126.576 67.2301C126.861 66.7356 127.245 66.3591 127.729 66.1005C128.213 65.8343 128.755 65.7012 129.354 65.7012C129.954 65.7012 130.495 65.8343 130.979 66.1005C131.464 66.3591 131.844 66.7318 132.121 67.2187C132.405 67.7055 132.547 68.2721 132.547 68.9187C132.547 69.5652 132.401 70.1357 132.109 70.6301C131.825 71.1169 131.437 71.4934 130.945 71.7597C130.453 72.0259 129.907 72.159 129.308 72.159ZM129.308 71.2462C129.685 71.2462 130.038 71.1588 130.369 70.9838C130.699 70.8089 130.964 70.5464 131.164 70.1966C131.371 69.8467 131.475 69.4207 131.475 68.9187C131.475 68.4167 131.375 67.9907 131.175 67.6408C130.976 67.2909 130.714 67.0323 130.392 66.865C130.069 66.69 129.719 66.6025 129.343 66.6025C128.958 66.6025 128.605 66.69 128.282 66.865C127.967 67.0323 127.713 67.2909 127.521 67.6408C127.329 67.9907 127.233 68.4167 127.233 68.9187C127.233 69.4283 127.325 69.8581 127.51 70.208C127.702 70.5579 127.956 70.8203 128.271 70.9952C128.586 71.1626 128.932 71.2462 129.308 71.2462Z" fill="#CBC0C0"/>
<path d="M134.871 64.7884C134.672 64.7884 134.503 64.7199 134.364 64.583C134.226 64.4461 134.157 64.2788 134.157 64.081C134.157 63.8832 134.226 63.7159 134.364 63.579C134.503 63.4421 134.672 63.3736 134.871 63.3736C135.064 63.3736 135.225 63.4421 135.356 63.579C135.494 63.7159 135.563 63.8832 135.563 64.081C135.563 64.2788 135.494 64.4461 135.356 64.583C135.225 64.7199 135.064 64.7884 134.871 64.7884ZM135.379 65.8039V72.0563H134.33V65.8039H135.379Z" fill="#CBC0C0"/>
<path d="M137.178 68.9187C137.178 68.2721 137.309 67.7093 137.57 67.2301C137.831 66.7432 138.192 66.3667 138.653 66.1005C139.122 65.8343 139.656 65.7012 140.256 65.7012C141.032 65.7012 141.67 65.8875 142.169 66.2602C142.676 66.6329 143.01 67.1502 143.172 67.812H142.042C141.935 67.4316 141.723 67.1312 141.408 66.9106C141.101 66.69 140.717 66.5797 140.256 66.5797C139.656 66.5797 139.172 66.7851 138.803 67.1958C138.434 67.599 138.25 68.1733 138.25 68.9187C138.25 69.6717 138.434 70.2536 138.803 70.6644C139.172 71.0751 139.656 71.2805 140.256 71.2805C140.717 71.2805 141.101 71.174 141.408 70.961C141.716 70.748 141.927 70.4438 142.042 70.0482H143.172C143.003 70.6872 142.665 71.2006 142.157 71.5885C141.65 71.9688 141.016 72.159 140.256 72.159C139.656 72.159 139.122 72.0259 138.653 71.7597C138.192 71.4934 137.831 71.1169 137.57 70.6301C137.309 70.1433 137.178 69.5728 137.178 68.9187Z" fill="#CBC0C0"/>
<path d="M150.738 68.6905C150.738 68.8883 150.727 69.0974 150.704 69.318H145.655C145.693 69.9341 145.905 70.4172 146.289 70.767C146.681 71.1093 147.153 71.2805 147.707 71.2805C148.16 71.2805 148.537 71.1778 148.836 70.9724C149.144 70.7594 149.359 70.478 149.482 70.1281H150.612C150.442 70.729 150.104 71.2196 149.597 71.5999C149.09 71.9726 148.46 72.159 147.707 72.159C147.107 72.159 146.569 72.0259 146.093 71.7597C145.624 71.4934 145.255 71.1169 144.986 70.6301C144.717 70.1357 144.583 69.5652 144.583 68.9187C144.583 68.2721 144.714 67.7055 144.975 67.2187C145.236 66.7318 145.601 66.3591 146.07 66.1005C146.546 65.8343 147.092 65.7012 147.707 65.7012C148.306 65.7012 148.836 65.8305 149.297 66.0891C149.759 66.3477 150.112 66.7052 150.358 67.1616C150.612 67.6104 150.738 68.12 150.738 68.6905ZM149.655 68.4737C149.655 68.0782 149.566 67.7397 149.39 67.4583C149.213 67.1692 148.971 66.9524 148.663 66.8079C148.364 66.6558 148.03 66.5797 147.661 66.5797C147.13 66.5797 146.677 66.7471 146.3 67.0817C145.932 67.4164 145.72 67.8804 145.667 68.4737H149.655Z" fill="#CBC0C0"/>
</svg>
